<svg width="165" height="164" viewBox="0 0 165 164" fill="none" xmlns="http://www.w3.org/2000/svg">
<path fill-rule="evenodd" clip-rule="evenodd" d="M48.0809 121.722L73.9536 0C32.4059 4.27609 0 39.385 0 82.0627C0 124.041 31.3519 158.696 71.9174 163.89L98.9089 36.9052L98.9093 36.9053C100.124 31.1982 105.486 27.5026 110.887 28.6507C116.289 29.799 119.685 35.3576 118.472 41.0663C118.465 41.0968 118.459 41.1273 118.452 41.1577L92.3449 163.981C133.267 159.115 165 124.295 165 82.0627C165 40.5108 134.281 6.1337 94.3149 0.402351L67.6451 125.874L67.6438 125.88C66.4955 131.282 61.1854 134.731 55.7832 133.582C50.3811 132.434 46.9326 127.124 48.0809 121.722Z" fill="#0084AB"/>
</svg>
