<svg width="431" height="164" viewBox="0 0 431 164" fill="none" xmlns="http://www.w3.org/2000/svg">
<path fill-rule="evenodd" clip-rule="evenodd" d="M48.0809 121.722L73.9536 0C32.4059 4.27609 0 39.385 0 82.0627C0 124.041 31.3519 158.696 71.9174 163.89L98.9089 36.9052L98.9093 36.9053C100.124 31.1982 105.486 27.5026 110.887 28.6507C116.289 29.799 119.685 35.3576 118.472 41.0663C118.465 41.0968 118.459 41.1273 118.452 41.1577L92.3449 163.981C133.267 159.115 165 124.295 165 82.0627C165 40.5108 134.281 6.1337 94.3149 0.402351L67.6451 125.874L67.6438 125.88C66.4955 131.282 61.1854 134.731 55.7832 133.582C50.3811 132.434 46.9326 127.124 48.0809 121.722Z" fill="white"/>
<path d="M416.016 118.498V118.201C416.016 117.077 416.176 116.044 416.497 115.1C416.818 114.146 417.285 113.32 417.899 112.622C418.513 111.923 419.268 111.38 420.165 110.993C421.061 110.597 422.09 110.398 423.251 110.398C424.413 110.398 425.446 110.597 426.353 110.993C427.259 111.38 428.019 111.923 428.632 112.622C429.255 113.32 429.727 114.146 430.048 115.1C430.369 116.044 430.53 117.077 430.53 118.201V118.498C430.53 119.612 430.369 120.646 430.048 121.599C429.727 122.543 429.255 123.369 428.632 124.077C428.019 124.776 427.264 125.319 426.367 125.706C425.47 126.093 424.441 126.286 423.28 126.286C422.119 126.286 421.085 126.093 420.179 125.706C419.282 125.319 418.522 124.776 417.899 124.077C417.285 123.369 416.818 122.543 416.497 121.599C416.176 120.646 416.016 119.612 416.016 118.498ZM420.094 118.201V118.498C420.094 119.14 420.15 119.739 420.264 120.296C420.377 120.853 420.556 121.344 420.802 121.769C421.057 122.184 421.387 122.51 421.793 122.746C422.199 122.982 422.694 123.1 423.28 123.1C423.846 123.1 424.332 122.982 424.738 122.746C425.144 122.51 425.47 122.184 425.715 121.769C425.961 121.344 426.14 120.853 426.253 120.296C426.376 119.739 426.438 119.14 426.438 118.498V118.201C426.438 117.578 426.376 116.992 426.253 116.445C426.14 115.888 425.956 115.397 425.701 114.972C425.456 114.538 425.13 114.198 424.724 113.953C424.318 113.707 423.827 113.584 423.251 113.584C422.676 113.584 422.185 113.707 421.779 113.953C421.382 114.198 421.057 114.538 420.802 114.972C420.556 115.397 420.377 115.888 420.264 116.445C420.15 116.992 420.094 117.578 420.094 118.201Z" fill="white"/>
<path d="M414.714 110.679V113.568H405.793V110.679H414.714ZM408.002 106.898H412.08V121.384C412.08 121.828 412.137 122.168 412.25 122.404C412.373 122.64 412.552 122.805 412.788 122.899C413.024 122.984 413.321 123.027 413.68 123.027C413.935 123.027 414.162 123.017 414.36 122.999C414.568 122.97 414.742 122.942 414.884 122.914L414.898 125.916C414.549 126.029 414.171 126.118 413.765 126.185C413.359 126.251 412.911 126.284 412.42 126.284C411.523 126.284 410.74 126.137 410.069 125.845C409.409 125.543 408.899 125.061 408.54 124.4C408.181 123.74 408.002 122.871 408.002 121.795V106.898Z" fill="white"/>
<path d="M394.945 113.953V126.003H390.867V110.682H394.69L394.945 113.953ZM394.351 117.804H393.246C393.246 116.671 393.392 115.652 393.685 114.746C393.978 113.83 394.388 113.051 394.917 112.409C395.446 111.758 396.073 111.262 396.8 110.922C397.537 110.573 398.358 110.398 399.264 110.398C399.982 110.398 400.638 110.502 401.232 110.71C401.827 110.918 402.337 111.248 402.762 111.701C403.196 112.154 403.526 112.754 403.753 113.5C403.989 114.245 404.107 115.156 404.107 116.232V126.003H400V116.218C400 115.539 399.906 115.01 399.717 114.632C399.528 114.255 399.25 113.99 398.882 113.839C398.523 113.679 398.079 113.599 397.551 113.599C397.003 113.599 396.527 113.707 396.121 113.924C395.724 114.141 395.394 114.444 395.129 114.831C394.875 115.208 394.681 115.652 394.549 116.162C394.417 116.671 394.351 117.219 394.351 117.804Z" fill="white"/>
<path d="M382.343 126.286C381.154 126.286 380.087 126.097 379.143 125.72C378.199 125.333 377.397 124.799 376.736 124.12C376.084 123.44 375.584 122.652 375.235 121.755C374.886 120.849 374.711 119.886 374.711 118.866V118.3C374.711 117.139 374.876 116.077 375.207 115.114C375.537 114.151 376.009 113.315 376.623 112.607C377.246 111.899 378.001 111.357 378.888 110.979C379.776 110.592 380.776 110.398 381.89 110.398C382.976 110.398 383.939 110.578 384.779 110.937C385.619 111.295 386.322 111.805 386.889 112.466C387.465 113.127 387.899 113.92 388.191 114.845C388.484 115.76 388.63 116.78 388.63 117.903V119.603H376.453V116.884H384.623V116.572C384.623 116.006 384.519 115.501 384.312 115.057C384.113 114.604 383.811 114.245 383.405 113.981C382.999 113.717 382.48 113.584 381.848 113.584C381.31 113.584 380.847 113.702 380.46 113.938C380.073 114.174 379.757 114.505 379.511 114.93C379.275 115.354 379.096 115.855 378.973 116.431C378.86 116.997 378.803 117.62 378.803 118.3V118.866C378.803 119.48 378.888 120.046 379.058 120.565C379.237 121.085 379.488 121.533 379.809 121.911C380.139 122.288 380.535 122.581 380.998 122.789C381.47 122.996 382.003 123.1 382.598 123.1C383.334 123.1 384.019 122.958 384.651 122.675C385.293 122.383 385.846 121.944 386.308 121.358L388.291 123.511C387.97 123.973 387.531 124.417 386.974 124.842C386.426 125.267 385.765 125.616 384.991 125.89C384.217 126.154 383.334 126.286 382.343 126.286Z" fill="white"/>
<path d="M371.921 110.679V126H367.829V110.679H371.921ZM367.574 106.686C367.574 106.091 367.782 105.6 368.197 105.213C368.613 104.826 369.17 104.633 369.868 104.633C370.557 104.633 371.11 104.826 371.525 105.213C371.95 105.6 372.162 106.091 372.162 106.686C372.162 107.281 371.95 107.772 371.525 108.159C371.11 108.546 370.557 108.739 369.868 108.739C369.17 108.739 368.613 108.546 368.197 108.159C367.782 107.772 367.574 107.281 367.574 106.686Z" fill="white"/>
<path d="M346.573 113.854V126.003H342.48V110.682H346.318L346.573 113.854ZM346.006 117.804H344.874C344.874 116.737 345.001 115.756 345.256 114.859C345.52 113.953 345.903 113.169 346.403 112.508C346.913 111.838 347.54 111.319 348.286 110.951C349.032 110.583 349.896 110.398 350.877 110.398C351.557 110.398 352.18 110.502 352.747 110.71C353.313 110.908 353.799 111.224 354.205 111.659C354.62 112.083 354.941 112.64 355.168 113.33C355.395 114.009 355.508 114.826 355.508 115.779V126.003H351.43V116.232C351.43 115.534 351.335 114.996 351.146 114.618C350.958 114.241 350.689 113.976 350.339 113.825C350 113.674 349.589 113.599 349.107 113.599C348.579 113.599 348.116 113.707 347.72 113.924C347.333 114.141 347.012 114.444 346.757 114.831C346.502 115.208 346.313 115.652 346.19 116.162C346.068 116.671 346.006 117.219 346.006 117.804ZM355.125 117.337L353.667 117.521C353.667 116.52 353.79 115.59 354.035 114.731C354.29 113.872 354.663 113.117 355.154 112.466C355.654 111.814 356.272 111.309 357.009 110.951C357.745 110.583 358.595 110.398 359.558 110.398C360.294 110.398 360.964 110.507 361.568 110.724C362.173 110.932 362.687 111.267 363.112 111.729C363.546 112.183 363.876 112.777 364.103 113.514C364.339 114.25 364.457 115.152 364.457 116.218V126.003H360.365V116.218C360.365 115.51 360.27 114.972 360.082 114.604C359.902 114.226 359.638 113.967 359.289 113.825C358.949 113.674 358.543 113.599 358.071 113.599C357.58 113.599 357.15 113.698 356.782 113.896C356.414 114.085 356.107 114.349 355.862 114.689C355.616 115.029 355.432 115.425 355.31 115.878C355.187 116.322 355.125 116.808 355.125 117.337Z" fill="white"/>
<path d="M335.953 114.023V126.003H331.875V110.682H335.712L335.953 114.023ZM340.569 110.583L340.499 114.363C340.3 114.335 340.06 114.311 339.776 114.292C339.503 114.264 339.252 114.25 339.026 114.25C338.45 114.25 337.95 114.326 337.525 114.477C337.11 114.618 336.76 114.831 336.477 115.114C336.203 115.397 335.996 115.742 335.854 116.147C335.722 116.553 335.646 117.016 335.627 117.535L334.806 117.28C334.806 116.289 334.905 115.378 335.104 114.547C335.302 113.707 335.59 112.976 335.967 112.353C336.354 111.729 336.826 111.248 337.383 110.908C337.94 110.568 338.577 110.398 339.295 110.398C339.521 110.398 339.753 110.417 339.989 110.455C340.225 110.483 340.418 110.526 340.569 110.583Z" fill="white"/>
<path d="M324.624 122.548V115.723C324.624 115.232 324.544 114.812 324.383 114.462C324.223 114.104 323.973 113.825 323.633 113.627C323.302 113.429 322.873 113.33 322.344 113.33C321.891 113.33 321.499 113.41 321.169 113.57C320.839 113.721 320.584 113.943 320.404 114.236C320.225 114.519 320.135 114.854 320.135 115.241H316.057C316.057 114.59 316.208 113.972 316.51 113.386C316.812 112.801 317.251 112.286 317.827 111.843C318.403 111.39 319.087 111.036 319.88 110.781C320.683 110.526 321.58 110.398 322.571 110.398C323.76 110.398 324.818 110.597 325.743 110.993C326.668 111.39 327.395 111.984 327.923 112.777C328.461 113.57 328.73 114.562 328.73 115.751V122.307C328.73 123.147 328.782 123.836 328.886 124.375C328.99 124.903 329.141 125.366 329.339 125.762V126.003H325.219C325.021 125.588 324.869 125.068 324.766 124.445C324.671 123.813 324.624 123.18 324.624 122.548ZM325.162 116.671L325.19 118.979H322.911C322.373 118.979 321.905 119.041 321.509 119.164C321.112 119.286 320.787 119.461 320.532 119.688C320.277 119.905 320.088 120.16 319.965 120.452C319.852 120.745 319.795 121.066 319.795 121.415C319.795 121.764 319.876 122.081 320.036 122.364C320.197 122.638 320.428 122.855 320.73 123.015C321.032 123.166 321.386 123.242 321.792 123.242C322.406 123.242 322.939 123.119 323.392 122.874C323.845 122.628 324.194 122.326 324.44 121.967C324.695 121.609 324.827 121.269 324.836 120.948L325.913 122.675C325.762 123.062 325.554 123.464 325.29 123.879C325.035 124.294 324.709 124.686 324.312 125.054C323.916 125.413 323.439 125.71 322.882 125.946C322.325 126.173 321.665 126.286 320.9 126.286C319.928 126.286 319.045 126.093 318.252 125.706C317.468 125.309 316.845 124.766 316.383 124.077C315.93 123.379 315.703 122.586 315.703 121.698C315.703 120.896 315.854 120.183 316.156 119.56C316.458 118.937 316.902 118.413 317.487 117.988C318.082 117.554 318.823 117.228 319.71 117.011C320.598 116.785 321.627 116.671 322.797 116.671H325.162Z" fill="white"/>
<path d="M309.476 120.607C309.476 120.239 309.419 119.908 309.306 119.616C309.202 119.314 309.004 119.04 308.711 118.794C308.419 118.54 308.008 118.289 307.479 118.044C306.951 117.799 306.266 117.544 305.426 117.279C304.492 116.977 303.604 116.637 302.764 116.26C301.933 115.882 301.197 115.443 300.555 114.943C299.923 114.433 299.422 113.843 299.054 113.173C298.695 112.503 298.516 111.724 298.516 110.836C298.516 109.977 298.705 109.199 299.083 108.5C299.46 107.792 299.989 107.188 300.668 106.688C301.348 106.178 302.151 105.786 303.076 105.512C304.01 105.238 305.035 105.102 306.148 105.102C307.668 105.102 308.995 105.375 310.127 105.923C311.26 106.47 312.138 107.221 312.761 108.174C313.394 109.128 313.71 110.218 313.71 111.445H309.49C309.49 110.841 309.363 110.312 309.108 109.859C308.862 109.397 308.485 109.033 307.975 108.769C307.475 108.505 306.842 108.373 306.078 108.373C305.341 108.373 304.728 108.486 304.237 108.712C303.746 108.93 303.378 109.227 303.132 109.604C302.887 109.973 302.764 110.388 302.764 110.851C302.764 111.2 302.849 111.516 303.019 111.799C303.198 112.083 303.463 112.347 303.812 112.592C304.161 112.838 304.591 113.069 305.101 113.286C305.61 113.503 306.2 113.716 306.871 113.923C307.994 114.263 308.98 114.646 309.83 115.07C310.689 115.495 311.407 115.972 311.982 116.5C312.558 117.029 312.993 117.629 313.285 118.299C313.578 118.969 313.724 119.729 313.724 120.579C313.724 121.475 313.549 122.278 313.2 122.986C312.851 123.694 312.346 124.293 311.685 124.784C311.024 125.275 310.236 125.648 309.32 125.903C308.405 126.158 307.38 126.285 306.248 126.285C305.228 126.285 304.223 126.153 303.231 125.889C302.24 125.615 301.339 125.204 300.527 124.657C299.724 124.109 299.083 123.411 298.601 122.561C298.12 121.711 297.879 120.706 297.879 119.545H302.141C302.141 120.187 302.24 120.73 302.438 121.173C302.637 121.617 302.915 121.976 303.274 122.25C303.642 122.523 304.076 122.722 304.577 122.844C305.086 122.967 305.643 123.028 306.248 123.028C306.984 123.028 307.588 122.924 308.06 122.717C308.542 122.509 308.896 122.221 309.122 121.853C309.358 121.485 309.476 121.069 309.476 120.607Z" fill="white"/>
<path d="M287.893 104.25V126H283.801V104.25H287.893Z" fill="white"/>
<path d="M276.339 122.548V115.723C276.339 115.232 276.259 114.812 276.098 114.462C275.938 114.104 275.688 113.825 275.348 113.627C275.017 113.429 274.588 113.33 274.059 113.33C273.606 113.33 273.214 113.41 272.884 113.57C272.553 113.721 272.299 113.943 272.119 114.236C271.94 114.519 271.85 114.854 271.85 115.241H267.772C267.772 114.59 267.923 113.972 268.225 113.386C268.527 112.801 268.966 112.286 269.542 111.843C270.118 111.39 270.802 111.036 271.595 110.781C272.398 110.526 273.294 110.398 274.286 110.398C275.475 110.398 276.532 110.597 277.458 110.993C278.383 111.39 279.11 111.984 279.638 112.777C280.176 113.57 280.445 114.562 280.445 115.751V122.307C280.445 123.147 280.497 123.836 280.601 124.375C280.705 124.903 280.856 125.366 281.054 125.762V126.003H276.934C276.735 125.588 276.584 125.068 276.48 124.445C276.386 123.813 276.339 123.18 276.339 122.548ZM276.877 116.671L276.905 118.979H274.625C274.087 118.979 273.62 119.041 273.224 119.164C272.827 119.286 272.501 119.461 272.247 119.688C271.992 119.905 271.803 120.16 271.68 120.452C271.567 120.745 271.51 121.066 271.51 121.415C271.51 121.764 271.59 122.081 271.751 122.364C271.911 122.638 272.143 122.855 272.445 123.015C272.747 123.166 273.101 123.242 273.507 123.242C274.12 123.242 274.654 123.119 275.107 122.874C275.56 122.628 275.909 122.326 276.155 121.967C276.41 121.609 276.542 121.269 276.551 120.948L277.627 122.675C277.476 123.062 277.269 123.464 277.004 123.879C276.75 124.294 276.424 124.686 276.027 125.054C275.631 125.413 275.154 125.71 274.597 125.946C274.04 126.173 273.379 126.286 272.615 126.286C271.642 126.286 270.76 126.093 269.967 125.706C269.183 125.309 268.56 124.766 268.098 124.077C267.645 123.379 267.418 122.586 267.418 121.698C267.418 120.896 267.569 120.183 267.871 119.56C268.173 118.937 268.617 118.413 269.202 117.988C269.797 117.554 270.538 117.228 271.425 117.011C272.313 116.785 273.342 116.671 274.512 116.671H276.877Z" fill="white"/>
<path d="M262.008 114.023V126.003H257.93V110.682H261.767L262.008 114.023ZM266.624 110.583L266.553 114.363C266.355 114.335 266.114 114.311 265.831 114.292C265.557 114.264 265.307 114.25 265.081 114.25C264.505 114.25 264.004 114.326 263.58 114.477C263.164 114.618 262.815 114.831 262.532 115.114C262.258 115.397 262.05 115.742 261.909 116.147C261.777 116.553 261.701 117.016 261.682 117.535L260.861 117.28C260.861 116.289 260.96 115.378 261.158 114.547C261.356 113.707 261.644 112.976 262.022 112.353C262.409 111.729 262.881 111.248 263.438 110.908C263.995 110.568 264.632 110.398 265.35 110.398C265.576 110.398 265.807 110.417 266.043 110.455C266.279 110.483 266.473 110.526 266.624 110.583Z" fill="white"/>
<path d="M249.324 126.286C248.134 126.286 247.068 126.097 246.124 125.72C245.18 125.333 244.377 124.799 243.716 124.12C243.065 123.44 242.565 122.652 242.215 121.755C241.866 120.849 241.691 119.886 241.691 118.866V118.3C241.691 117.139 241.857 116.077 242.187 115.114C242.517 114.151 242.989 113.315 243.603 112.607C244.226 111.899 244.981 111.357 245.869 110.979C246.756 110.592 247.757 110.398 248.871 110.398C249.956 110.398 250.919 110.578 251.759 110.937C252.599 111.295 253.303 111.805 253.869 112.466C254.445 113.127 254.879 113.92 255.172 114.845C255.465 115.76 255.611 116.78 255.611 117.903V119.603H243.433V116.884H251.604V116.572C251.604 116.006 251.5 115.501 251.292 115.057C251.094 114.604 250.792 114.245 250.386 113.981C249.98 113.717 249.461 113.584 248.828 113.584C248.29 113.584 247.827 113.702 247.44 113.938C247.053 114.174 246.737 114.505 246.492 114.93C246.256 115.354 246.076 115.855 245.954 116.431C245.84 116.997 245.784 117.62 245.784 118.3V118.866C245.784 119.48 245.869 120.046 246.039 120.565C246.218 121.085 246.468 121.533 246.789 121.911C247.119 122.288 247.516 122.581 247.979 122.789C248.451 122.996 248.984 123.1 249.579 123.1C250.315 123.1 250.999 122.958 251.632 122.675C252.274 122.383 252.826 121.944 253.289 121.358L255.271 123.511C254.95 123.973 254.511 124.417 253.954 124.842C253.407 125.267 252.746 125.616 251.972 125.89C251.198 126.154 250.315 126.286 249.324 126.286Z" fill="white"/>
<path d="M230.008 113.953V126.003H225.93V110.682H229.753L230.008 113.953ZM229.413 117.804H228.309C228.309 116.671 228.455 115.652 228.748 114.746C229.04 113.83 229.451 113.051 229.979 112.409C230.508 111.758 231.136 111.262 231.863 110.922C232.599 110.573 233.42 110.398 234.327 110.398C235.044 110.398 235.7 110.502 236.295 110.71C236.89 110.918 237.399 111.248 237.824 111.701C238.258 112.154 238.589 112.754 238.815 113.5C239.051 114.245 239.169 115.156 239.169 116.232V126.003H235.063V116.218C235.063 115.539 234.969 115.01 234.78 114.632C234.591 114.255 234.312 113.99 233.944 113.839C233.586 113.679 233.142 113.599 232.613 113.599C232.066 113.599 231.589 113.707 231.183 113.924C230.787 114.141 230.456 114.444 230.192 114.831C229.937 115.208 229.743 115.652 229.611 116.162C229.479 116.671 229.413 117.219 229.413 117.804Z" fill="white"/>
<path d="M217.406 126.286C216.216 126.286 215.15 126.097 214.206 125.72C213.262 125.333 212.459 124.799 211.798 124.12C211.147 123.44 210.647 122.652 210.297 121.755C209.948 120.849 209.773 119.886 209.773 118.866V118.3C209.773 117.139 209.939 116.077 210.269 115.114C210.599 114.151 211.071 113.315 211.685 112.607C212.308 111.899 213.063 111.357 213.951 110.979C214.838 110.592 215.839 110.398 216.953 110.398C218.038 110.398 219.001 110.578 219.841 110.937C220.681 111.295 221.385 111.805 221.951 112.466C222.527 113.127 222.961 113.92 223.254 114.845C223.547 115.76 223.693 116.78 223.693 117.903V119.603H211.515V116.884H219.686V116.572C219.686 116.006 219.582 115.501 219.374 115.057C219.176 114.604 218.874 114.245 218.468 113.981C218.062 113.717 217.543 113.584 216.91 113.584C216.372 113.584 215.91 113.702 215.522 113.938C215.135 114.174 214.819 114.505 214.574 114.93C214.338 115.354 214.158 115.855 214.036 116.431C213.922 116.997 213.866 117.62 213.866 118.3V118.866C213.866 119.48 213.951 120.046 214.121 120.565C214.3 121.085 214.55 121.533 214.871 121.911C215.201 122.288 215.598 122.581 216.061 122.789C216.533 122.996 217.066 123.1 217.661 123.1C218.397 123.1 219.081 122.958 219.714 122.675C220.356 122.383 220.908 121.944 221.371 121.358L223.353 123.511C223.032 123.973 222.593 124.417 222.036 124.842C221.489 125.267 220.828 125.616 220.054 125.89C219.28 126.154 218.397 126.286 217.406 126.286Z" fill="white"/>
<path d="M207.18 115.225V123.395C206.859 123.782 206.364 124.202 205.693 124.655C205.023 125.099 204.159 125.481 203.102 125.802C202.045 126.123 200.766 126.284 199.265 126.284C197.934 126.284 196.721 126.067 195.625 125.632C194.53 125.189 193.586 124.542 192.793 123.692C192.01 122.843 191.406 121.804 190.981 120.577C190.556 119.34 190.344 117.929 190.344 116.343V115.055C190.344 113.469 190.547 112.057 190.953 110.821C191.368 109.584 191.958 108.541 192.723 107.691C193.487 106.842 194.398 106.195 195.456 105.751C196.513 105.308 197.688 105.086 198.981 105.086C200.775 105.086 202.248 105.379 203.399 105.964C204.551 106.54 205.429 107.342 206.033 108.371C206.647 109.391 207.024 110.561 207.166 111.883H203.045C202.942 111.184 202.743 110.575 202.451 110.056C202.158 109.537 201.738 109.131 201.19 108.838C200.652 108.546 199.954 108.399 199.095 108.399C198.387 108.399 197.754 108.546 197.197 108.838C196.65 109.122 196.187 109.542 195.81 110.099C195.432 110.656 195.144 111.345 194.946 112.166C194.748 112.987 194.648 113.941 194.648 115.026V116.343C194.648 117.419 194.752 118.373 194.96 119.204C195.168 120.025 195.474 120.719 195.88 121.285C196.296 121.842 196.806 122.262 197.41 122.545C198.014 122.829 198.717 122.97 199.52 122.97C200.19 122.97 200.747 122.914 201.19 122.8C201.644 122.687 202.007 122.55 202.281 122.39C202.564 122.22 202.781 122.059 202.932 121.908V118.255H199.052V115.225H207.18Z" fill="white"/>
<path d="M353.583 87.769C353.583 87.4764 353.498 87.2121 353.328 86.9761C353.158 86.7401 352.842 86.5229 352.379 86.3247C351.926 86.117 351.27 85.9282 350.411 85.7583C349.637 85.5884 348.915 85.376 348.245 85.1211C347.584 84.8568 347.008 84.5405 346.517 84.1724C346.036 83.8042 345.658 83.37 345.384 82.8696C345.111 82.3599 344.974 81.7793 344.974 81.1279C344.974 80.486 345.111 79.8818 345.384 79.3154C345.667 78.749 346.069 78.2487 346.588 77.8145C347.117 77.3708 347.758 77.0262 348.514 76.7808C349.278 76.5259 350.137 76.3984 351.091 76.3984C352.422 76.3984 353.564 76.6108 354.518 77.0356C355.48 77.4604 356.217 78.0457 356.727 78.7915C357.246 79.5278 357.505 80.368 357.505 81.312H353.427C353.427 80.9155 353.342 80.5615 353.172 80.25C353.012 79.929 352.757 79.6789 352.408 79.4995C352.068 79.3107 351.624 79.2163 351.077 79.2163C350.624 79.2163 350.232 79.2965 349.901 79.457C349.571 79.6081 349.316 79.8158 349.137 80.0801C348.967 80.335 348.882 80.6182 348.882 80.9297C348.882 81.1657 348.929 81.3781 349.023 81.5669C349.127 81.7463 349.292 81.9115 349.519 82.0625C349.746 82.2135 350.038 82.3551 350.397 82.4873C350.765 82.61 351.218 82.7233 351.756 82.8271C352.861 83.0537 353.847 83.3511 354.716 83.7192C355.584 84.078 356.273 84.5688 356.783 85.1919C357.293 85.8055 357.548 86.6126 357.548 87.6133C357.548 88.293 357.397 88.916 357.095 89.4824C356.793 90.0488 356.358 90.5444 355.792 90.9692C355.226 91.3846 354.546 91.7103 353.753 91.9463C352.969 92.1729 352.087 92.2861 351.105 92.2861C349.68 92.2861 348.471 92.0312 347.48 91.5215C346.498 91.0117 345.752 90.3651 345.243 89.5815C344.742 88.7886 344.492 87.9767 344.492 87.146H348.358C348.377 87.703 348.518 88.1514 348.783 88.4912C349.056 88.8311 349.401 89.0765 349.816 89.2275C350.241 89.3786 350.699 89.4541 351.19 89.4541C351.719 89.4541 352.158 89.3833 352.507 89.2417C352.856 89.0907 353.12 88.8924 353.3 88.647C353.489 88.3921 353.583 88.0994 353.583 87.769Z" fill="white"/>
<path d="M336.691 92.2861C335.501 92.2861 334.435 92.0973 333.491 91.7197C332.547 91.3327 331.744 90.7993 331.083 90.1196C330.432 89.4399 329.932 88.6517 329.583 87.7549C329.233 86.8486 329.059 85.8857 329.059 84.8662V84.2998C329.059 83.1387 329.224 82.0767 329.554 81.1138C329.885 80.1509 330.357 79.3154 330.97 78.6074C331.593 77.8994 332.348 77.3566 333.236 76.979C334.123 76.592 335.124 76.3984 336.238 76.3984C337.323 76.3984 338.286 76.5778 339.126 76.9365C339.967 77.2952 340.67 77.805 341.236 78.4658C341.812 79.1266 342.246 79.9196 342.539 80.8447C342.832 81.7604 342.978 82.7799 342.978 83.9033V85.6025H330.8V82.8838H338.971V82.5723C338.971 82.0059 338.867 81.5008 338.659 81.0571C338.461 80.604 338.159 80.2453 337.753 79.981C337.347 79.7166 336.828 79.5845 336.195 79.5845C335.657 79.5845 335.195 79.7025 334.808 79.9385C334.421 80.1745 334.104 80.5049 333.859 80.9297C333.623 81.3545 333.444 81.8548 333.321 82.4307C333.208 82.9971 333.151 83.6201 333.151 84.2998V84.8662C333.151 85.4798 333.236 86.0462 333.406 86.5654C333.585 87.0846 333.835 87.533 334.156 87.9106C334.487 88.2882 334.883 88.5809 335.346 88.7886C335.818 88.9963 336.351 89.1001 336.946 89.1001C337.682 89.1001 338.367 88.9585 338.999 88.6753C339.641 88.3826 340.193 87.9437 340.656 87.3584L342.638 89.5107C342.317 89.9733 341.878 90.417 341.321 90.8418C340.774 91.2666 340.113 91.6159 339.339 91.8896C338.565 92.154 337.682 92.2861 336.691 92.2861Z" fill="white"/>
<path d="M323.379 80.0234V92.0029H319.301V76.6816H323.138L323.379 80.0234ZM327.995 76.5825L327.924 80.3633C327.726 80.335 327.485 80.3114 327.202 80.2925C326.928 80.2642 326.678 80.25 326.452 80.25C325.876 80.25 325.375 80.3255 324.951 80.4766C324.535 80.6182 324.186 80.8306 323.903 81.1138C323.629 81.397 323.421 81.7415 323.28 82.1475C323.148 82.5534 323.072 83.016 323.053 83.5352L322.232 83.2803C322.232 82.2891 322.331 81.3781 322.529 80.5474C322.728 79.7072 323.015 78.9756 323.393 78.3525C323.78 77.7295 324.252 77.248 324.809 76.9082C325.366 76.5684 326.003 76.3984 326.721 76.3984C326.947 76.3984 327.179 76.4173 327.415 76.4551C327.651 76.4834 327.844 76.5259 327.995 76.5825Z" fill="white"/>
<path d="M302.281 84.498V84.2007C302.281 83.0773 302.442 82.0436 302.763 81.0996C303.084 80.1462 303.551 79.3201 304.165 78.6216C304.778 77.923 305.533 77.3802 306.43 76.9932C307.327 76.5967 308.356 76.3984 309.517 76.3984C310.678 76.3984 311.712 76.5967 312.618 76.9932C313.524 77.3802 314.284 77.923 314.898 78.6216C315.521 79.3201 315.993 80.1462 316.314 81.0996C316.635 82.0436 316.795 83.0773 316.795 84.2007V84.498C316.795 85.612 316.635 86.6457 316.314 87.5991C315.993 88.5431 315.521 89.3691 314.898 90.0771C314.284 90.7757 313.529 91.3185 312.632 91.7056C311.736 92.0926 310.707 92.2861 309.545 92.2861C308.384 92.2861 307.351 92.0926 306.444 91.7056C305.548 91.3185 304.788 90.7757 304.165 90.0771C303.551 89.3691 303.084 88.5431 302.763 87.5991C302.442 86.6457 302.281 85.612 302.281 84.498ZM306.359 84.2007V84.498C306.359 85.14 306.416 85.7394 306.529 86.2964C306.643 86.8534 306.822 87.3442 307.067 87.769C307.322 88.1844 307.653 88.5101 308.059 88.7461C308.465 88.9821 308.96 89.1001 309.545 89.1001C310.112 89.1001 310.598 88.9821 311.004 88.7461C311.41 88.5101 311.736 88.1844 311.981 87.769C312.226 87.3442 312.406 86.8534 312.519 86.2964C312.642 85.7394 312.703 85.14 312.703 84.498V84.2007C312.703 83.5776 312.642 82.9924 312.519 82.4448C312.406 81.8879 312.222 81.397 311.967 80.9722C311.721 80.5379 311.396 80.1981 310.99 79.9526C310.584 79.7072 310.093 79.5845 309.517 79.5845C308.941 79.5845 308.45 79.7072 308.044 79.9526C307.648 80.1981 307.322 80.5379 307.067 80.9722C306.822 81.397 306.643 81.8879 306.529 82.4448C306.416 82.9924 306.359 83.5776 306.359 84.2007Z" fill="white"/>
<path d="M300.979 76.6792V79.5679H292.059V76.6792H300.979ZM294.268 72.8984H298.346V87.3843C298.346 87.828 298.402 88.1678 298.516 88.4038C298.638 88.6398 298.818 88.805 299.054 88.8994C299.29 88.9844 299.587 89.0269 299.946 89.0269C300.201 89.0269 300.427 89.0174 300.625 88.9985C300.833 88.9702 301.008 88.9419 301.149 88.9136L301.164 91.9155C300.814 92.0288 300.437 92.1185 300.031 92.1846C299.625 92.2507 299.176 92.2837 298.686 92.2837C297.789 92.2837 297.005 92.1374 296.335 91.8447C295.674 91.5426 295.164 91.0612 294.806 90.4004C294.447 89.7396 294.268 88.8711 294.268 87.7949V72.8984Z" fill="white"/>
<path d="M276.453 84.498V84.2007C276.453 83.0773 276.614 82.0436 276.935 81.0996C277.256 80.1462 277.723 79.3201 278.336 78.6216C278.95 77.923 279.705 77.3802 280.602 76.9932C281.499 76.5967 282.528 76.3984 283.689 76.3984C284.85 76.3984 285.884 76.5967 286.79 76.9932C287.696 77.3802 288.456 77.923 289.07 78.6216C289.693 79.3201 290.165 80.1462 290.486 81.0996C290.807 82.0436 290.967 83.0773 290.967 84.2007V84.498C290.967 85.612 290.807 86.6457 290.486 87.5991C290.165 88.5431 289.693 89.3691 289.07 90.0771C288.456 90.7757 287.701 91.3185 286.804 91.7056C285.907 92.0926 284.878 92.2861 283.717 92.2861C282.556 92.2861 281.522 92.0926 280.616 91.7056C279.719 91.3185 278.959 90.7757 278.336 90.0771C277.723 89.3691 277.256 88.5431 276.935 87.5991C276.614 86.6457 276.453 85.612 276.453 84.498ZM280.531 84.2007V84.498C280.531 85.14 280.588 85.7394 280.701 86.2964C280.814 86.8534 280.994 87.3442 281.239 87.769C281.494 88.1844 281.825 88.5101 282.23 88.7461C282.636 88.9821 283.132 89.1001 283.717 89.1001C284.284 89.1001 284.77 88.9821 285.176 88.7461C285.582 88.5101 285.907 88.1844 286.153 87.769C286.398 87.3442 286.578 86.8534 286.691 86.2964C286.814 85.7394 286.875 85.14 286.875 84.498V84.2007C286.875 83.5776 286.814 82.9924 286.691 82.4448C286.578 81.8879 286.394 81.397 286.139 80.9722C285.893 80.5379 285.568 80.1981 285.162 79.9526C284.756 79.7072 284.265 79.5845 283.689 79.5845C283.113 79.5845 282.622 79.7072 282.216 79.9526C281.82 80.1981 281.494 80.5379 281.239 80.9722C280.994 81.397 280.814 81.8879 280.701 82.4448C280.588 82.9924 280.531 83.5776 280.531 84.2007Z" fill="white"/>
<path d="M256.061 79.8535V92.0029H251.969V76.6816H255.806L256.061 79.8535ZM255.495 83.8042H254.362C254.362 82.7375 254.489 81.7557 254.744 80.8589C255.008 79.9526 255.391 79.1691 255.891 78.5083C256.401 77.8381 257.029 77.3188 257.774 76.9507C258.52 76.5825 259.384 76.3984 260.366 76.3984C261.045 76.3984 261.668 76.5023 262.235 76.71C262.801 76.9082 263.287 77.2244 263.693 77.6587C264.109 78.0835 264.43 78.6405 264.656 79.3296C264.883 80.0093 264.996 80.8258 264.996 81.7793V92.0029H260.918V82.2324C260.918 81.5339 260.824 80.9958 260.635 80.6182C260.446 80.2406 260.177 79.9762 259.828 79.8252C259.488 79.6742 259.077 79.5986 258.596 79.5986C258.067 79.5986 257.604 79.7072 257.208 79.9243C256.821 80.1414 256.5 80.4435 256.245 80.8306C255.99 81.2082 255.801 81.6519 255.679 82.1616C255.556 82.6714 255.495 83.2189 255.495 83.8042ZM264.614 83.3369L263.155 83.521C263.155 82.5203 263.278 81.5905 263.523 80.7314C263.778 79.8724 264.151 79.1172 264.642 78.4658C265.142 77.8145 265.761 77.3094 266.497 76.9507C267.233 76.5825 268.083 76.3984 269.046 76.3984C269.782 76.3984 270.452 76.507 271.057 76.7241C271.661 76.9318 272.175 77.2669 272.6 77.7295C273.034 78.1826 273.365 78.7773 273.591 79.5137C273.827 80.25 273.945 81.1515 273.945 82.2183V92.0029H269.853V82.2183C269.853 81.5103 269.759 80.9722 269.57 80.604C269.39 80.2264 269.126 79.9668 268.777 79.8252C268.437 79.6742 268.031 79.5986 267.559 79.5986C267.068 79.5986 266.639 79.6978 266.271 79.896C265.902 80.0848 265.596 80.3491 265.35 80.689C265.105 81.0288 264.921 81.4253 264.798 81.8784C264.675 82.3221 264.614 82.8083 264.614 83.3369Z" fill="white"/>
<path d="M234.965 84.498V84.2007C234.965 83.0773 235.125 82.0436 235.446 81.0996C235.767 80.1462 236.235 79.3201 236.848 78.6216C237.462 77.923 238.217 77.3802 239.114 76.9932C240.011 76.5967 241.04 76.3984 242.201 76.3984C243.362 76.3984 244.396 76.5967 245.302 76.9932C246.208 77.3802 246.968 77.923 247.582 78.6216C248.205 79.3201 248.677 80.1462 248.998 81.0996C249.319 82.0436 249.479 83.0773 249.479 84.2007V84.498C249.479 85.612 249.319 86.6457 248.998 87.5991C248.677 88.5431 248.205 89.3691 247.582 90.0771C246.968 90.7757 246.213 91.3185 245.316 91.7056C244.419 92.0926 243.39 92.2861 242.229 92.2861C241.068 92.2861 240.034 92.0926 239.128 91.7056C238.231 91.3185 237.471 90.7757 236.848 90.0771C236.235 89.3691 235.767 88.5431 235.446 87.5991C235.125 86.6457 234.965 85.612 234.965 84.498ZM239.043 84.2007V84.498C239.043 85.14 239.1 85.7394 239.213 86.2964C239.326 86.8534 239.506 87.3442 239.751 87.769C240.006 88.1844 240.336 88.5101 240.742 88.7461C241.148 88.9821 241.644 89.1001 242.229 89.1001C242.795 89.1001 243.282 88.9821 243.688 88.7461C244.093 88.5101 244.419 88.1844 244.665 87.769C244.91 87.3442 245.089 86.8534 245.203 86.2964C245.325 85.7394 245.387 85.14 245.387 84.498V84.2007C245.387 83.5776 245.325 82.9924 245.203 82.4448C245.089 81.8879 244.905 81.397 244.65 80.9722C244.405 80.5379 244.079 80.1981 243.673 79.9526C243.267 79.7072 242.777 79.5845 242.201 79.5845C241.625 79.5845 241.134 79.7072 240.728 79.9526C240.332 80.1981 240.006 80.5379 239.751 80.9722C239.506 81.397 239.326 81.8879 239.213 82.4448C239.1 82.9924 239.043 83.5776 239.043 84.2007Z" fill="white"/>
<path d="M233.663 76.6792V79.5679H224.742V76.6792H233.663ZM226.951 72.8984H231.029V87.3843C231.029 87.828 231.086 88.1678 231.199 88.4038C231.322 88.6398 231.501 88.805 231.737 88.8994C231.973 88.9844 232.271 89.0269 232.629 89.0269C232.884 89.0269 233.111 89.0174 233.309 88.9985C233.517 88.9702 233.691 88.9419 233.833 88.9136L233.847 91.9155C233.498 92.0288 233.12 92.1185 232.714 92.1846C232.308 92.2507 231.86 92.2837 231.369 92.2837C230.472 92.2837 229.689 92.1374 229.019 91.8447C228.358 91.5426 227.848 91.0612 227.489 90.4004C227.131 89.7396 226.951 88.8711 226.951 87.7949V72.8984Z" fill="white"/>
<path d="M218.965 88.3335V76.6797H223.043V92.001H219.206L218.965 88.3335ZM219.418 85.1899L220.622 85.1616C220.622 86.1812 220.504 87.1299 220.268 88.0078C220.032 88.8763 219.678 89.6315 219.206 90.2734C218.734 90.9059 218.139 91.4015 217.421 91.7603C216.704 92.1095 215.859 92.2842 214.887 92.2842C214.141 92.2842 213.452 92.1803 212.819 91.9727C212.196 91.7555 211.658 91.4204 211.205 90.9673C210.761 90.5047 210.412 89.9147 210.157 89.1973C209.912 88.4704 209.789 87.5972 209.789 86.5776V76.6797H213.867V86.606C213.867 87.0591 213.919 87.4414 214.023 87.7529C214.136 88.0645 214.292 88.3193 214.49 88.5176C214.688 88.7158 214.92 88.8574 215.184 88.9424C215.458 89.0273 215.76 89.0698 216.09 89.0698C216.931 89.0698 217.591 88.8999 218.073 88.5601C218.564 88.2202 218.908 87.7576 219.106 87.1724C219.314 86.5776 219.418 85.9168 219.418 85.1899Z" fill="white"/>
<path d="M199.222 74.9087L193.615 92H189.098L196.758 71.3828H199.633L199.222 74.9087ZM203.881 92L198.259 74.9087L197.806 71.3828H200.709L208.412 92H203.881ZM203.626 84.3252V87.6528H192.737V84.3252H203.626Z" fill="white"/>
<path d="M342.169 53.769C342.169 53.4764 342.084 53.2121 341.914 52.9761C341.744 52.7401 341.428 52.5229 340.965 52.3247C340.512 52.117 339.856 51.9282 338.997 51.7583C338.223 51.5884 337.501 51.376 336.831 51.1211C336.17 50.8568 335.594 50.5405 335.103 50.1724C334.622 49.8042 334.244 49.37 333.97 48.8696C333.696 48.3599 333.56 47.7793 333.56 47.1279C333.56 46.486 333.696 45.8818 333.97 45.3154C334.253 44.749 334.655 44.2487 335.174 43.8145C335.702 43.3708 336.344 43.0262 337.1 42.7808C337.864 42.5259 338.723 42.3984 339.677 42.3984C341.008 42.3984 342.15 42.6108 343.104 43.0356C344.066 43.4604 344.803 44.0457 345.312 44.7915C345.832 45.5278 346.091 46.368 346.091 47.312H342.013C342.013 46.9155 341.928 46.5615 341.758 46.25C341.598 45.929 341.343 45.6789 340.994 45.4995C340.654 45.3107 340.21 45.2163 339.663 45.2163C339.209 45.2163 338.818 45.2965 338.487 45.457C338.157 45.6081 337.902 45.8158 337.723 46.0801C337.553 46.335 337.468 46.6182 337.468 46.9297C337.468 47.1657 337.515 47.3781 337.609 47.5669C337.713 47.7463 337.878 47.9115 338.105 48.0625C338.332 48.2135 338.624 48.3551 338.983 48.4873C339.351 48.61 339.804 48.7233 340.342 48.8271C341.447 49.0537 342.433 49.3511 343.302 49.7192C344.17 50.078 344.859 50.5688 345.369 51.1919C345.879 51.8055 346.134 52.6126 346.134 53.6133C346.134 54.293 345.983 54.916 345.681 55.4824C345.379 56.0488 344.944 56.5444 344.378 56.9692C343.812 57.3846 343.132 57.7103 342.339 57.9463C341.555 58.1729 340.673 58.2861 339.691 58.2861C338.265 58.2861 337.057 58.0312 336.066 57.5215C335.084 57.0117 334.338 56.3651 333.829 55.5815C333.328 54.7886 333.078 53.9767 333.078 53.146H336.944C336.963 53.703 337.104 54.1514 337.369 54.4912C337.642 54.8311 337.987 55.0765 338.402 55.2275C338.827 55.3786 339.285 55.4541 339.776 55.4541C340.305 55.4541 340.743 55.3833 341.093 55.2417C341.442 55.0907 341.706 54.8924 341.886 54.647C342.075 54.3921 342.169 54.0994 342.169 53.769Z" fill="white"/>
<path d="M325.277 58.2861C324.087 58.2861 323.021 58.0973 322.077 57.7197C321.133 57.3327 320.33 56.7993 319.669 56.1196C319.018 55.4399 318.518 54.6517 318.168 53.7549C317.819 52.8486 317.645 51.8857 317.645 50.8662V50.2998C317.645 49.1387 317.81 48.0767 318.14 47.1138C318.471 46.1509 318.943 45.3154 319.556 44.6074C320.179 43.8994 320.934 43.3566 321.822 42.979C322.709 42.592 323.71 42.3984 324.824 42.3984C325.909 42.3984 326.872 42.5778 327.712 42.9365C328.553 43.2952 329.256 43.805 329.822 44.4658C330.398 45.1266 330.832 45.9196 331.125 46.8447C331.418 47.7604 331.564 48.7799 331.564 49.9033V51.6025H319.386V48.8838H327.557V48.5723C327.557 48.0059 327.453 47.5008 327.245 47.0571C327.047 46.604 326.745 46.2453 326.339 45.981C325.933 45.7166 325.414 45.5845 324.781 45.5845C324.243 45.5845 323.781 45.7025 323.394 45.9385C323.007 46.1745 322.69 46.5049 322.445 46.9297C322.209 47.3545 322.029 47.8548 321.907 48.4307C321.793 48.9971 321.737 49.6201 321.737 50.2998V50.8662C321.737 51.4798 321.822 52.0462 321.992 52.5654C322.171 53.0846 322.421 53.533 322.742 53.9106C323.073 54.2882 323.469 54.5809 323.932 54.7886C324.404 54.9963 324.937 55.1001 325.532 55.1001C326.268 55.1001 326.952 54.9585 327.585 54.6753C328.227 54.3826 328.779 53.9437 329.242 53.3584L331.224 55.5107C330.903 55.9733 330.464 56.417 329.907 56.8418C329.36 57.2666 328.699 57.6159 327.925 57.8896C327.151 58.154 326.268 58.2861 325.277 58.2861Z" fill="white"/>
<path d="M315.905 42.6792V45.5679H306.984V42.6792H315.905ZM309.193 38.8984H313.271V53.3843C313.271 53.828 313.328 54.1678 313.441 54.4038C313.564 54.6398 313.743 54.805 313.979 54.8994C314.215 54.9844 314.513 55.0269 314.872 55.0269C315.126 55.0269 315.353 55.0174 315.551 54.9985C315.759 54.9702 315.934 54.9419 316.075 54.9136L316.089 57.9155C315.74 58.0288 315.362 58.1185 314.957 58.1846C314.551 58.2507 314.102 58.2837 313.611 58.2837C312.715 58.2837 311.931 58.1374 311.261 57.8447C310.6 57.5426 310.09 57.0612 309.731 56.4004C309.373 55.7396 309.193 54.8711 309.193 53.7949V38.8984Z" fill="white"/>
<path d="M301.148 46.0234V58.0029H297.07V42.6816H300.908L301.148 46.0234ZM305.765 42.5825L305.694 46.3633C305.496 46.335 305.255 46.3114 304.972 46.2925C304.698 46.2642 304.448 46.25 304.221 46.25C303.645 46.25 303.145 46.3255 302.72 46.4766C302.305 46.6182 301.956 46.8306 301.672 47.1138C301.399 47.397 301.191 47.7415 301.049 48.1475C300.917 48.5534 300.842 49.016 300.823 49.5352L300.001 49.2803C300.001 48.2891 300.101 47.3781 300.299 46.5474C300.497 45.7072 300.785 44.9756 301.163 44.3525C301.55 43.7295 302.022 43.248 302.579 42.9082C303.136 42.5684 303.773 42.3984 304.49 42.3984C304.717 42.3984 304.948 42.4173 305.184 42.4551C305.42 42.4834 305.614 42.5259 305.765 42.5825Z" fill="white"/>
<path d="M280.051 50.498V50.2007C280.051 49.0773 280.211 48.0436 280.532 47.0996C280.853 46.1462 281.32 45.3201 281.934 44.6216C282.548 43.923 283.303 43.3802 284.2 42.9932C285.097 42.5967 286.125 42.3984 287.287 42.3984C288.448 42.3984 289.481 42.5967 290.388 42.9932C291.294 43.3802 292.054 43.923 292.667 44.6216C293.291 45.3201 293.763 46.1462 294.083 47.0996C294.404 48.0436 294.565 49.0773 294.565 50.2007V50.498C294.565 51.612 294.404 52.6457 294.083 53.5991C293.763 54.5431 293.291 55.3691 292.667 56.0771C292.054 56.7757 291.299 57.3185 290.402 57.7056C289.505 58.0926 288.476 58.2861 287.315 58.2861C286.154 58.2861 285.12 58.0926 284.214 57.7056C283.317 57.3185 282.557 56.7757 281.934 56.0771C281.32 55.3691 280.853 54.5431 280.532 53.5991C280.211 52.6457 280.051 51.612 280.051 50.498ZM284.129 50.2007V50.498C284.129 51.14 284.186 51.7394 284.299 52.2964C284.412 52.8534 284.591 53.3442 284.837 53.769C285.092 54.1844 285.422 54.5101 285.828 54.7461C286.234 54.9821 286.73 55.1001 287.315 55.1001C287.881 55.1001 288.368 54.9821 288.773 54.7461C289.179 54.5101 289.505 54.1844 289.75 53.769C289.996 53.3442 290.175 52.8534 290.289 52.2964C290.411 51.7394 290.473 51.14 290.473 50.498V50.2007C290.473 49.5776 290.411 48.9924 290.289 48.4448C290.175 47.8879 289.991 47.397 289.736 46.9722C289.491 46.5379 289.165 46.1981 288.759 45.9526C288.353 45.7072 287.862 45.5845 287.287 45.5845C286.711 45.5845 286.22 45.7072 285.814 45.9526C285.417 46.1981 285.092 46.5379 284.837 46.9722C284.591 47.397 284.412 47.8879 284.299 48.4448C284.186 48.9924 284.129 49.5776 284.129 50.2007Z" fill="white"/>
<path d="M268.469 45.627V63.8936H264.391V42.6816H268.171L268.469 45.627ZM278.168 50.1724V50.4697C278.168 51.5837 278.036 52.6174 277.772 53.5708C277.517 54.5243 277.139 55.355 276.639 56.063C276.139 56.7616 275.516 57.3091 274.77 57.7056C274.034 58.0926 273.184 58.2861 272.221 58.2861C271.287 58.2861 270.475 58.0973 269.786 57.7197C269.097 57.3421 268.516 56.8135 268.044 56.1338C267.581 55.4447 267.208 54.647 266.925 53.7407C266.642 52.8345 266.425 51.8621 266.274 50.8237V50.0449C266.425 48.931 266.642 47.9115 266.925 46.9863C267.208 46.0518 267.581 45.2446 268.044 44.5649C268.516 43.8758 269.092 43.3424 269.771 42.9648C270.461 42.5872 271.268 42.3984 272.193 42.3984C273.165 42.3984 274.02 42.5825 274.756 42.9507C275.502 43.3188 276.125 43.8475 276.625 44.5366C277.135 45.2257 277.517 46.047 277.772 47.0005C278.036 47.9539 278.168 49.0112 278.168 50.1724ZM274.076 50.4697V50.1724C274.076 49.521 274.02 48.9215 273.906 48.374C273.802 47.8171 273.632 47.3309 273.396 46.9155C273.17 46.5002 272.868 46.1792 272.49 45.9526C272.122 45.7166 271.674 45.5986 271.145 45.5986C270.588 45.5986 270.111 45.6883 269.715 45.8677C269.328 46.047 269.012 46.3066 268.766 46.6465C268.521 46.9863 268.337 47.3923 268.214 47.8643C268.091 48.3363 268.016 48.8696 267.987 49.4644V51.4326C268.035 52.1312 268.167 52.759 268.384 53.3159C268.601 53.8634 268.936 54.2977 269.389 54.6187C269.842 54.9396 270.437 55.1001 271.173 55.1001C271.711 55.1001 272.165 54.9821 272.533 54.7461C272.901 54.5007 273.198 54.1655 273.425 53.7407C273.661 53.3159 273.826 52.825 273.92 52.2681C274.024 51.7111 274.076 51.1117 274.076 50.4697Z" fill="white"/>
<path d="M257.774 53.769C257.774 53.4764 257.689 53.2121 257.52 52.9761C257.35 52.7401 257.033 52.5229 256.571 52.3247C256.118 52.117 255.462 51.9282 254.603 51.7583C253.828 51.5884 253.106 51.376 252.436 51.1211C251.775 50.8568 251.199 50.5405 250.708 50.1724C250.227 49.8042 249.849 49.37 249.576 48.8696C249.302 48.3599 249.165 47.7793 249.165 47.1279C249.165 46.486 249.302 45.8818 249.576 45.3154C249.859 44.749 250.26 44.2487 250.779 43.8145C251.308 43.3708 251.95 43.0262 252.705 42.7808C253.47 42.5259 254.329 42.3984 255.282 42.3984C256.613 42.3984 257.756 42.6108 258.709 43.0356C259.672 43.4604 260.408 44.0457 260.918 44.7915C261.437 45.5278 261.697 46.368 261.697 47.312H257.619C257.619 46.9155 257.534 46.5615 257.364 46.25C257.203 45.929 256.948 45.6789 256.599 45.4995C256.259 45.3107 255.816 45.2163 255.268 45.2163C254.815 45.2163 254.423 45.2965 254.093 45.457C253.762 45.6081 253.507 45.8158 253.328 46.0801C253.158 46.335 253.073 46.6182 253.073 46.9297C253.073 47.1657 253.12 47.3781 253.215 47.5669C253.319 47.7463 253.484 47.9115 253.71 48.0625C253.937 48.2135 254.23 48.3551 254.588 48.4873C254.957 48.61 255.41 48.7233 255.948 48.8271C257.052 49.0537 258.039 49.3511 258.907 49.7192C259.776 50.078 260.465 50.5688 260.975 51.1919C261.484 51.8055 261.739 52.6126 261.739 53.6133C261.739 54.293 261.588 54.916 261.286 55.4824C260.984 56.0488 260.55 56.5444 259.983 56.9692C259.417 57.3846 258.737 57.7103 257.944 57.9463C257.161 58.1729 256.278 58.2861 255.296 58.2861C253.871 58.2861 252.663 58.0312 251.671 57.5215C250.69 57.0117 249.944 56.3651 249.434 55.5815C248.934 54.7886 248.684 53.9767 248.684 53.146H252.549C252.568 53.703 252.71 54.1514 252.974 54.4912C253.248 54.8311 253.592 55.0765 254.008 55.2275C254.433 55.3786 254.89 55.4541 255.381 55.4541C255.91 55.4541 256.349 55.3833 256.698 55.2417C257.048 55.0907 257.312 54.8924 257.491 54.647C257.68 54.3921 257.774 54.0994 257.774 53.769Z" fill="white"/>
<path d="M237.23 45.9526V58.0029H233.152V42.6816H236.976L237.23 45.9526ZM236.636 49.8042H235.531C235.531 48.6714 235.678 47.6519 235.97 46.7456C236.263 45.8299 236.674 45.0511 237.202 44.4092C237.731 43.7578 238.359 43.2622 239.085 42.9224C239.822 42.5731 240.643 42.3984 241.549 42.3984C242.267 42.3984 242.923 42.5023 243.518 42.71C244.112 42.9176 244.622 43.248 245.047 43.7012C245.481 44.1543 245.812 44.7537 246.038 45.4995C246.274 46.2453 246.392 47.1562 246.392 48.2324V58.0029H242.286V48.2183C242.286 47.5386 242.191 47.0099 242.002 46.6323C241.814 46.2547 241.535 45.9904 241.167 45.8394C240.808 45.6789 240.365 45.5986 239.836 45.5986C239.288 45.5986 238.812 45.7072 238.406 45.9243C238.009 46.1414 237.679 46.4435 237.415 46.8306C237.16 47.2082 236.966 47.6519 236.834 48.1616C236.702 48.6714 236.636 49.2189 236.636 49.8042Z" fill="white"/>
<path d="M225.987 54.5479V47.7227C225.987 47.2318 225.907 46.8117 225.747 46.4624C225.586 46.1037 225.336 45.8252 224.996 45.627C224.666 45.4287 224.236 45.3296 223.708 45.3296C223.254 45.3296 222.863 45.4098 222.532 45.5703C222.202 45.7214 221.947 45.9432 221.768 46.2358C221.588 46.519 221.499 46.8542 221.499 47.2412H217.42C217.42 46.5898 217.571 45.9715 217.874 45.3862C218.176 44.8009 218.615 44.2865 219.19 43.8428C219.766 43.3896 220.451 43.0356 221.244 42.7808C222.046 42.5259 222.943 42.3984 223.934 42.3984C225.124 42.3984 226.181 42.5967 227.106 42.9932C228.031 43.3896 228.758 43.9844 229.287 44.7773C229.825 45.5703 230.094 46.5615 230.094 47.751V54.3071C230.094 55.1473 230.146 55.8364 230.25 56.3745C230.353 56.9032 230.504 57.3657 230.703 57.7622V58.0029H226.582C226.384 57.5876 226.233 57.0684 226.129 56.4453C226.035 55.8128 225.987 55.1803 225.987 54.5479ZM226.525 48.6714L226.554 50.9795H224.274C223.736 50.9795 223.269 51.0409 222.872 51.1636C222.476 51.2863 222.15 51.4609 221.895 51.6875C221.64 51.9046 221.451 52.1595 221.329 52.4521C221.215 52.7448 221.159 53.0658 221.159 53.415C221.159 53.7643 221.239 54.0806 221.399 54.3638C221.56 54.6375 221.791 54.8547 222.093 55.0151C222.395 55.1662 222.749 55.2417 223.155 55.2417C223.769 55.2417 224.302 55.119 224.755 54.8735C225.208 54.6281 225.558 54.326 225.803 53.9673C226.058 53.6086 226.19 53.2687 226.2 52.9478L227.276 54.6753C227.125 55.0623 226.917 55.4635 226.653 55.8789C226.398 56.2943 226.072 56.686 225.676 57.0542C225.279 57.4129 224.803 57.7103 224.246 57.9463C223.689 58.1729 223.028 58.2861 222.263 58.2861C221.291 58.2861 220.408 58.0926 219.615 57.7056C218.832 57.3091 218.209 56.7663 217.746 56.0771C217.293 55.3786 217.066 54.5856 217.066 53.6982C217.066 52.8958 217.217 52.1831 217.52 51.5601C217.822 50.937 218.265 50.4131 218.851 49.9883C219.445 49.554 220.186 49.2284 221.074 49.0112C221.961 48.7847 222.99 48.6714 224.161 48.6714H226.525Z" fill="white"/>
<path d="M211.656 46.0234V58.0029H207.578V42.6816H211.416L211.656 46.0234ZM216.272 42.5825L216.202 46.3633C216.003 46.335 215.763 46.3114 215.479 46.2925C215.206 46.2642 214.956 46.25 214.729 46.25C214.153 46.25 213.653 46.3255 213.228 46.4766C212.813 46.6182 212.463 46.8306 212.18 47.1138C211.906 47.397 211.699 47.7415 211.557 48.1475C211.425 48.5534 211.349 49.016 211.331 49.5352L210.509 49.2803C210.509 48.2891 210.608 47.3781 210.807 46.5474C211.005 45.7072 211.293 44.9756 211.67 44.3525C212.057 43.7295 212.529 43.248 213.086 42.9082C213.643 42.5684 214.281 42.3984 214.998 42.3984C215.225 42.3984 215.456 42.4173 215.692 42.4551C215.928 42.4834 216.121 42.5259 216.272 42.5825Z" fill="white"/>
<path d="M200.061 37.3828V58H195.827V37.3828H200.061ZM206.404 37.3828V40.7104H189.582V37.3828H206.404Z" fill="white"/>
</svg>
