<svg width="120" height="120" viewBox="0 0 120 120" fill="none" xmlns="http://www.w3.org/2000/svg">
<circle cx="60" cy="60" r="60" fill="white"/>
<path fill-rule="evenodd" clip-rule="evenodd" d="M99.6719 105.016C112.137 94.0234 120 77.9297 120 60C120 26.8594 93.1367 0 60 0C26.8633 0 0 26.8594 0 60C0 77.5391 7.52344 93.3281 19.5234 104.297C24.4141 86.8203 40.4648 74 59.5 74C78.793 74 95.0234 87.1797 99.6719 105.016ZM83 49C83 61.7031 72.7031 72 60 72C47.2969 72 37 61.7031 37 49C37 36.2969 47.2969 26 60 26C72.7031 26 83 36.2969 83 49Z" fill="#C2C2C2"/>
</svg>
